<?xml version="1.0" encoding="UTF-8"?><svg xmlns="http://www.w3.org/2000/svg" xmlns:xlink="http://www.w3.org/1999/xlink" height="70.6" preserveAspectRatio="xMidYMid meet" version="1.0" viewBox="0.0 0.1 165.1 70.6" width="165.1" zoomAndPan="magnify"><g><g id="change1_1"><path d="M101.5,28.6c-0.2,0.1-0.4,0.2-0.5,0.2c0,0.4,0.1,0.7,0.1,1.1c0,0.3-0.1,0.7-0.2,1c0,0.1-0.1,0.2-0.2,0.4 c-0.1,0.2-0.2,0.3-0.2,0.5c0,0.4-0.3,0.8-0.1,1.3c0,0.1-0.1,0.2-0.1,0.3c-0.5,0.5-0.5,1.3-0.9,2c-0.1,0.1,0,0.2-0.1,0.4 c0,0.3-0.1,0.6-0.3,0.9c-0.3,0.4-0.3,0.9-0.4,1.4c0,0.2-0.1,0.3-0.2,0.5c-0.2,0.3-0.4,0.6-0.3,1c0,0.1,0,0.3-0.1,0.3 c-0.6,0.5-0.5,1.4-1,2c-0.1,0.1-0.2,0.3-0.3,0.4c-0.2,0.3-0.3,0.6-0.5,0.9c-0.2,0.3-0.4,0.5-0.6,0.8c-0.6,0.8-1.2,1.6-1.8,2.3 c-0.1,0.1-0.2,0.2-0.3,0.3c0-0.2-0.1-0.4-0.1-0.4c-0.5-0.1-0.4-0.4-0.5-0.8c-0.2-1.7-0.3-3.4-0.3-5.2c0-0.6,0.1-1.2,0.2-1.8 c0-0.2,0-0.5-0.1-0.7c-0.2-0.4-0.2-0.6,0.1-0.9c0.2-0.2,0.3-0.6,0.3-1c0.1-0.5,0.2-1,0.3-1.5c0-0.2,0-0.4,0-0.6 c0.1-0.4-0.4-0.7-0.1-1.1c0.2-0.3,0.3-0.7,0.5-1c0.1-0.1,0.1-0.3,0.2-0.4c-0.3-0.4-0.2-0.8-0.1-1.2c0.1-0.4,0-0.7,0.3-1.1 c0.3-0.4,0.4-1,0.2-1.6c-0.1-0.4-0.1-0.7,0.1-1.1c0.3-0.7,0.5-1.4,0.7-2.1c0.1-0.2,0.1-0.4,0.1-0.6c0.1-0.3,0.2-0.7,0.3-1 c0.1-0.4,0.2-0.8,0.3-1.3c0.1-0.2,0.1-0.5,0.2-0.7c0.1-0.4,0.3-0.7,0.2-1.2c-0.1-0.8,0.2-1.5,0.4-2.2c0.1-0.4,0.4-0.8,0.2-1.4 c0-0.1,0-0.2,0.1-0.3c0.3-0.5,0.5-1.1,0.6-1.7c0-0.1,0.1-0.2,0.1-0.3c0-1.4,0-1.4,0.6-2.7c0.1-0.2,0-0.4,0.1-0.7 c0-0.3,0.1-0.7,0.1-1c0-0.1,0.1-0.2,0.1-0.3c0-0.6,0.2-1.1,0.3-1.6c0.3-0.9,0.2-1.9,0.2-2.8c0-0.4,0-0.6,0.5-0.6 c-0.1-0.1-0.2-0.2-0.2-0.3c0-0.1-0.1-0.3,0-0.4c0.2-0.3,0.3-0.7,0.4-1c0-0.2,0.3-0.3,0.4-0.4c0.1-0.1,0.2,0,0.3-0.1 c0.2-0.3,0.4-0.6,0.6-0.9c0.2-0.2,0.5-0.3,0.9-0.5c0.2,0.3,0.6,0.6,0.9,1c0.2-0.1,0.5-0.2,0.8-0.3c0.4,0.3,0.8,0.7,1.2,1l0.5,1 c0.1,0.3,0.2,0.4,0.6,0.3c0,0.6-0.1,1.2,0.3,1.7c0,0.1,0,0.2,0,0.3c0,0.2-0.1,0.4-0.1,0.7c0,0.4,0,0.7-0.2,1 c-0.1,0.1-0.2,0.3,0,0.5c0.3,0.3,0.1,0.6-0.1,0.9c-0.4,0.6-0.4,1.3-0.2,2c0,0.1,0.1,0.3,0.1,0.5c-0.4,0.3-0.6,0.7-0.6,1.2 c-0.2,0.9-0.4,1.8-0.6,2.7c0,0.1-0.1,0.3-0.1,0.4c0.1,0.5,0,0.9-0.2,1.3c-0.3,0.7-0.3,1.4-0.3,2.1c0,0.2-0.3,0.5,0,0.8 c0.1,0.1,0,0.5-0.1,0.6c-0.5,0.3-0.4,1-0.6,1.4c-0.1,0.1-0.1,0.4,0,0.4c0.4,0.5-0.1,0.9-0.1,1.4c0,0.2-0.4,0.2-0.4,0.5 c0.1,0.6-0.1,1.1-0.2,1.6c0,0.2-0.1,0.4-0.2,0.6c0,0.1-0.2,0.3-0.1,0.4C102.1,27.1,101.4,27.7,101.5,28.6z" fill="#a1c264"/></g><g id="change2_1"><path d="M29.2,36.5c0.2-0.2,0.3-0.4,0.5-0.5c-0.4-0.2-0.7-0.4-1-0.6c0-0.2,0.1-0.4,0.1-0.6c-0.3-0.4-1-0.3-1.1-0.9 c0-0.2,0.1-0.4,0.2-0.6c-0.6-0.1-0.6-0.9-1.1-1.2c-0.6-0.3-0.5-1-0.9-1.5c-0.2,0-0.4-0.1-0.7-0.2c0.2-0.4,0-0.6-0.3-0.9 c-0.2-0.3-0.3-0.6-0.4-0.9c-0.5,0.2-0.4-0.5-0.8-0.5c0.2-0.2,0.3-0.3,0.4-0.5c-0.4-0.5-0.9-1-1.3-1.6c-0.4-0.5-0.3-0.6,0-1 c-0.1-0.4-0.2-0.7-0.3-1c0-0.1-0.1-0.2-0.2-0.3c-0.4-0.5-0.2-0.6-0.2-1.1c0-0.5,0.3-0.5,0.5-0.8c0.2-0.1,0.4-0.3,0.5-0.6 c0.1-0.2,0.4-0.3,0.6-0.5c0.2-0.2,0.4-0.3,0.7-0.5c0.2,0,0.6,0.1,0.9,0c0.3-0.1,0.6,0,0.9,0.2c0.2,0.1,0.5,0.1,0.8,0.1 c0,0.2-0.1,0.4-0.1,0.5c0.5,0.2,0.8,0.8,1.4,1c0.4,0.2,0.5,0.6,0.3,0.8c0.2,0.1,0.3,0.2,0.5,0.3c0.1,0.1,0.1,0.2,0.1,0.2 c0.5-0.1,0.6,0.4,0.6,0.7c0.1,0.5,0.3,0.6,0.7,0.7c0.1,0.6,0.3,1.1,0.9,1.3c0.3,0.1,0.4,0.3,0.5,1.1c0.1,0,0.2,0,0.4,0.1 c0.1,0,0.3,0,0.3,0c0.2,0.3,0.3,0.6,0.4,0.8c0.1,0.3,0.1,0.6,0.2,0.8c0.1,0.3,0.2,0.6,0.6,0.7c1,0.2,1.1,0.4,1,1.5 c0.2,0,0.4,0,0.6,0.1c0.1,0.1,0.2,0.3,0.4,0.4c-0.1,0.1-0.2,0.2-0.4,0.4c0.5,0.7,1.1,1.3,2.1,1.7c-0.1,0.2-0.2,0.5-0.3,0.8 c0.4,0.4,0.8,0.8,1.2,1.3c0.2,0.2,0.2,0.6,0.3,0.9c0.3,0.2,0.6,0.3,0.9,0.5c-0.2,0.2-0.4,0.4-0.7,0.6c0.8,0.1,1,0.5,1.1,1.1 c0,0.1,0,0.3,0.1,0.3c0.7,0.4,0.9,1.3,1.6,1.7c0.1,0,0.2,0.1,0.2,0.2c0.1,0.3,0,0.6,0.2,0.8c0.2,0.2,0.5,0.3,0.5,0.6 c0,0.2,0,0.3,0,0.5c0.7,0.5,0.7,0.5,0.5,1.1c0.4,0.1,0.8,0.3,1.2,0.5c-0.1,0.2-0.2,0.3-0.3,0.4c0.2,0.2,0.5,0.4,0.6,0.7 c0.2,0.4,0.5,0.8,0.6,1.2c0.3,1,0.9,1.8,1.7,2.4c-0.1,0.1-0.1,0.2-0.2,0.4c1,0.8,1.3,2,2,3c0,0-0.1,0.1-0.1,0.1 c-0.2-0.1-0.3-0.3-0.5-0.4c-0.1,0.7,0.6,1.2,0.6,1.9c0,0.6,0.2,1.3,0.4,2c-0.3-0.1-0.6-0.2-0.9-0.3c0.1,0.2,0.1,0.3,0.2,0.6 c-0.7-0.1-1.3-0.1-1.9-0.3c-0.7-0.2-1.4-0.6-2-0.9c-0.1,0-0.1-0.2-0.1-0.3c-0.1-0.1-0.2-0.4-0.4-0.4c-1.2-0.3-1.7-1.4-2.5-2.1 c-0.5-0.4-0.7-1-1.3-1.2c-0.2,0-0.3-0.4-0.3-0.6c0-0.4-0.2-0.7-0.5-0.9c-0.3-0.2-0.7-0.4-0.9-0.7c-0.6-0.6-1-1.3-1.6-2 c0.1-0.4-0.3-0.6-0.4-0.9c-0.3-0.5-0.7-1-1.1-1.4c0-0.8-0.8-1-1.2-1.6c-0.2-0.4-0.5-0.7-0.8-1.1c-0.1-0.1-0.1-0.5-0.2-0.8 c-0.3-0.2-0.7-0.5-0.6-1c-0.6-0.3-0.4-1.4-1.3-1.5c-0.3-0.5-0.9-0.8-1-1.6C30.2,37.1,29.9,36.6,29.2,36.5z" fill="#f28a29"/></g><g id="change3_1"><path d="M57.8,3.2c0.4-0.2,0.7-0.3,1-0.5C59,3,59.1,3.2,59.3,3.5c0.1-0.2,0.2-0.4,0.3-0.7C59.8,3,59.9,3.1,60,3.2 c0.2-0.3,0.4-0.7,0.6-1c0.2,0.2,0.4,0.5,0.6,0.7c0.1-0.2,0.2-0.5,0.3-0.8c0.5,0.6,1.1,1.2,1.6,1.8c0.1-0.3,0.2-0.5,0.3-0.7 c0.1,0.3,0.3,0.5,0.4,0.7C63.9,4,64,4.1,64.2,4.4c-0.1,0.1-0.1,0.3-0.2,0.5c0.9,0.1,0.8,0.7,0.8,1.4c0,0.3,0.1,0.6,0.2,0.8 c0.6,1,0.6,1-0.1,1.8c0,0,0,0.1,0,0.2c0.2,0,0.4-0.1,0.6-0.1C65.5,9,65.6,9,65.6,9c0.2,0.7,0.4,1.3,0.5,2c0,0.2-0.1,0.5-0.1,0.8 c0.2,0,0.4,0.1,0.5,0.1c0,0.1,0.1,0.1,0,0.2c-0.2,0.4-0.1,0.8,0.2,1.2c0.3,0.4,0,0.7,0,1.1c0.7,0.5,0.7,0.5,0.1,0.9 c0.3,0.6,0.3-0.5,0.6,0.1c0,0.1,0.1,0.3,0,0.4c-0.3,0.3-0.1,0.7,0,1c0.2,0.5,0,1,0.2,1.4c0.1,0.3,0.2,0.5,0.5,0.5 c0.1,0,0.2,0.1,0.3,0.1c-0.1,0.2-0.1,0.3-0.2,0.4c-0.3,0.6-0.3,1.1,0.1,1.7c0.2,0.4,0.4,0.9,0.4,1.3c-0.1,0.4,0.1,0.7,0.3,1.1 c-0.1,0.1-0.2,0.2-0.4,0.3c0.5,0.3,0,0.8,0.3,1.2c-0.2,0.7,0.6,1.4,0.2,2.1c0.3,0.3,0.2,0.5,0.1,0.9c-0.1,0.3-0.1,0.7,0,0.9 c0.4,0.7,0,1.7,0.7,2.4c-0.2,0.2-0.6,0.4-0.2,0.8c0.4,0.4,0.4,1,0.4,1.4c0,0.8,0.1,1.5,0.2,2.3c0,0.2-0.2,0.5,0,0.7 c-0.2,0-0.3,0.1-0.4,0.1c0.2,0.4,0.4,0.8,0.7,1.3c-0.1,0-0.1,0.1-0.2,0.2c0.1,0.5,0.2,1,0.3,1.5c0,0.1,0,0.2-0.1,0.3 c-0.3,0.3-0.2,0.5,0.2,0.6c-0.1,0.1-0.2,0.1-0.4,0.2c0.2,0.4,0.2,0.9,0.1,1.4c0,0.5,0.1,1,0.2,1.5c0.2,0.9,0.3,2.6,0.1,3.7 c-0.2-0.5-0.4-0.9-0.6-1.4c-0.1,0-0.1,0-0.2,0c0,0.4,0,0.7,0.1,1.3c-0.4-0.5-0.6-0.8-0.9-1.2c-0.5-0.7-0.7-1.6-1.4-2.2 c-0.3-0.3-0.4-0.8-0.5-1.2c-0.1-0.3-0.3-0.6-0.3-0.9c0-0.4-0.2-0.5-0.4-0.8c-0.1-0.1,0-0.3,0-0.5c0-0.1-0.2-0.2-0.3-0.3 c-0.1-0.3,0.2-0.6-0.2-0.8c0.1-1-0.7-1.7-0.8-2.7c-0.1-0.7-0.4-1.3-0.5-2c0-0.2-0.2-0.4-0.4-0.8c0,0,0.1-0.2,0.1-0.2 c-0.1-0.5-0.2-0.9-0.4-1.3c-0.1-0.2-0.3-0.4-0.4-0.6c0.2-0.5,0-0.9-0.5-1.2c0.1-0.2,0.1-0.3,0.2-0.4c-0.2-0.1-0.3-0.2-0.4-0.2 c0-0.2,0-0.5,0-0.7c0-0.3-0.1-0.6-0.1-0.9c0-0.3-0.1-0.6-0.2-0.9c-0.2-0.3-0.2-0.8-0.3-1.2c0-0.3,0-0.6-0.2-0.7 c-0.3-0.3-0.4-0.7-0.3-1.1c0-0.1,0-0.2-0.1-0.3c-0.4-0.4-0.6-0.8-0.7-1.3c0-0.3-0.2-0.7-0.2-1c0-0.1,0-0.3-0.1-0.4 c-0.6-0.8-0.7-1.7-1-2.6c-0.2-0.6-0.4-1.2-0.5-1.8c-0.2-1-0.2-0.2-0.4-1.1c0-0.1,0-0.2,0-0.2c-0.4-0.6-0.3-1.2-0.2-1.9 c0-0.2-0.1-0.5-0.2-0.6c-0.3-0.3-0.4-0.7-0.4-1.1c0-0.4,0-0.7-0.4-1c-0.1-0.1-0.1-0.4-0.1-0.6c0.1-0.4,0-0.8-0.3-1.1 c-0.2-0.3-0.4-0.6-0.2-0.9c0.1-0.2-0.3-0.5,0-0.7c0,0-0.2-0.4-0.3-0.5c0.2-0.5,0.6-0.9,0.4-1.5c0-0.1,0-0.3,0.1-0.3 C58.1,5,58,4.4,58.2,4C58.3,3.7,58.2,3.4,57.8,3.2z" fill="#fedc0f"/></g><g id="change4_1"><path d="M114.5,57c-0.3-0.3-0.4-0.5-0.7-0.7c0.1-0.6,0.3-1.3,0.4-2.1c0.3-1.1,0.7-2.2,1-3.3c0-0.1,0.1-0.3,0.2-0.4 c0.4-0.4,0.6-0.9,0.8-1.5c0.1-0.4,0.1-0.8,0.5-1c0.2-0.1,0.2-0.3,0.3-0.5c0.1-0.1,0.1-0.3,0.2-0.4c0.5-0.4,0.6-1,0.6-1.5 c0-0.4,0.3-0.4,0.4-0.6c0.1-0.3,0-0.8,0.5-0.8c-0.2-0.3,0.1-0.4,0.2-0.6c0.1-0.2,0.3-0.5,0.6-0.8c0.1-0.6,0.5-1.2,1-1.8 c-0.2-0.4-0.2-0.8,0.2-0.9c0.4-0.1,0.5-0.3,0.5-0.6c0-0.1,0.1-0.2,0.1-0.3c0.5-0.1,0.3-0.4,0.2-0.7c0.4-0.2,0.9-0.3,0.9-0.9 c0-0.2,0.3-0.4,0.5-0.6c0.3-0.2-0.4-0.5,0.1-0.5c-0.3-0.5,0.2-0.6,0.5-0.8c0.1,0,0.1-0.1,0.2-0.1c-0.1-0.1-0.1-0.2-0.2-0.3 c0.1-0.1,0.2-0.1,0.3-0.2c-0.3-0.2,0-0.4,0-0.4c0.6-0.2,0.6-0.9,1-1.2c0.5-0.4,0.6-0.9,0.8-1.4c0.2-0.4,0.6-0.6,0.4-1.1 c0-0.1,0.2-0.3,0.3-0.4c0.7-0.4,0.8-1.3,1.2-1.9c0.1-0.2,0.2-0.5,0.3-0.6c0.4-0.3,0.7-0.7,1.2-1c0.6-0.4,0.8-0.8,0.9-1.4 c0-0.1,0-0.2,0.1-0.3c0.8-0.2,0.9-0.4,0.8-1c0.4-0.4,1.1-0.5,1-1.2c0.3-0.1,0.5-0.2,0.7-0.3c0.2,0.2,0.4,0.4,0.7,0.5 c0.2-0.1,0.3-0.2,0.5-0.2c0.2,0,0.4,0.1,0.6,0.1c0,0.1,0,0.3,0,0.5c0.3-0.2,0.6-0.3,0.9-0.5c0.2,0.2,0.3,0.4,0.5,0.7 c0.2-0.2,0.3-0.3,0.4-0.4c0.4,0.2,0.2,0.5,0.1,0.8c0.4,0.2,0.7,0.4,0.4,0.9c0,0.1,0,0.3,0,0.3c0.7,0.4,0.2,1.1,0.4,1.6 c0.1,0.1-0.1,0.4-0.2,0.5c-0.4,0.7-0.6,1.4-0.8,2.1c-0.1,0.3-0.2,0.6-0.5,0.8c-0.7,0.5-0.6,1.5-1.2,2.1c-0.5,0.5-0.7,1.3-1.1,1.9 c-0.3,0.5-0.7,0.9-1,1.4c-0.4,0.7-1.1,1.1-1.3,1.9c0,0.1-0.2,0.2-0.3,0.3c-0.2,0.3-0.6,0.6-0.4,1c0.1,0.3,0,0.5-0.4,0.7 c-0.5,0.3-0.9,0.6-1.2,1.1c-0.2,0.3-0.3,0.6-0.4,0.9c-0.4,0.7-0.8,1.2-1.7,2c-0.4,0.3-0.6,0.8-0.9,1.2c-0.1,0.2-0.3,0.4-0.5,0.6 c0.3,0.6-0.4,1-0.6,1.5c-0.4,0.6-1.1,1-1.4,1.8c0,0.1-0.2,0.1-0.3,0.2c-0.1,0.1-0.2,0.1-0.2,0.2c-0.5,1.1-0.5,1.2-1,1.6 c-0.7,0.4-1.1,1.1-1.6,1.7c-0.1,0.1-0.1,0.1-0.1,0.2c-1.1,1-1.9,2.3-3.3,3C115.8,56.2,115.2,56.6,114.5,57z" fill="#089ed3"/></g><g id="change5_1"><path d="M35.9,69.9c-0.2,0.3-0.4,0.5-0.7,0.8c-0.6-0.1-1.4-0.1-2.1-0.2c-1.1-0.1-2.2-0.5-3.4-0.6 c-0.1,0-0.3-0.1-0.4-0.2c-0.5-0.4-1-0.5-1.6-0.6c-0.4-0.1-0.8,0-1.1-0.4c-0.1-0.1-0.4-0.2-0.6-0.3c-0.1-0.1-0.4,0-0.4-0.1 c-0.5-0.5-1-0.5-1.6-0.4c-0.4,0.1-0.4-0.3-0.6-0.3c-0.3-0.1-0.7,0.1-0.9-0.4c-0.3,0.2-0.4,0-0.6-0.1c-0.3-0.1-0.5-0.3-0.9-0.5 c-0.6,0-1.3-0.4-1.9-0.8c-0.4,0.3-0.7,0.3-0.9-0.2c-0.1-0.3-0.3-0.4-0.6-0.4c-0.1,0-0.3,0-0.3-0.1c-0.2-0.5-0.4-0.3-0.7-0.1 c-0.3-0.3-0.4-0.9-1-0.8c-0.2,0-0.5-0.2-0.6-0.4c-0.2-0.2-0.4,0.4-0.5,0c-0.5,0.3-0.6-0.1-0.9-0.4c0-0.1-0.1-0.1-0.2-0.2 c-0.1,0.1-0.2,0.2-0.2,0.2c-0.1-0.1-0.2-0.2-0.2-0.3c-0.1,0.3-0.4,0-0.4,0c-0.3-0.5-0.9-0.5-1.3-0.8c-0.4-0.4-1-0.5-1.5-0.7 c-0.4-0.1-0.7-0.5-1.2-0.3c-0.1,0-0.3-0.1-0.4-0.3c-0.5-0.7-1.4-0.6-2-0.9C6.1,60,5.8,60,5.7,59.8c-0.3-0.4-0.8-0.7-1.1-1 c-0.4-0.5-0.9-0.7-1.5-0.7c-0.1,0-0.2,0-0.3,0c-0.3-0.7-0.5-0.9-1.1-0.7c-0.4-0.3-0.6-1-1.3-0.8C0.3,56.2,0.1,56,0,55.8 c0.1-0.2,0.3-0.5,0.5-0.7c-0.1-0.2-0.3-0.3-0.3-0.5c0-0.2,0-0.4,0.1-0.6c0.1,0,0.3,0,0.4-0.1c-0.2-0.3-0.4-0.6-0.6-0.8 c0.2-0.2,0.4-0.4,0.7-0.6c-0.2-0.1-0.3-0.2-0.5-0.3C0.5,51.7,0.8,51.8,1,52c0.2-0.4,0.4-0.8,0.9-0.5c0.1,0,0.3,0,0.3-0.1 c0.3-0.7,1.1-0.3,1.6-0.6c0.1-0.1,0.4,0,0.5,0.1c0.7,0.3,1.4,0.5,2.2,0.6c0.3,0,0.6,0.2,0.8,0.4c0.6,0.6,1.5,0.4,2.2,1 c0.5,0.4,1.3,0.5,2,0.8c0.5,0.2,0.9,0.6,1.5,0.9c0.7,0.3,1.2,1,2,1.1c0.1,0,0.2,0.2,0.4,0.3c0.3,0.1,0.6,0.5,1.1,0.3 c0.3-0.1,0.5,0,0.8,0.3c0.3,0.4,0.7,0.9,1.2,1.1c0.3,0.1,0.6,0.2,0.9,0.4c0.8,0.3,1.3,0.7,2.2,1.5c0.4,0.3,0.9,0.5,1.3,0.8 c0.2,0.1,0.4,0.3,0.6,0.5c0.6-0.3,1,0.2,1.5,0.5c0.7,0.3,1.1,1,1.9,1.2c0.1,0,0.2,0.2,0.2,0.3c0.1,0.1,0.1,0.2,0.2,0.2 c1.1,0.3,1.2,0.3,1.7,0.8c0.5,0.6,1.2,0.9,1.9,1.4c0.1,0,0.1,0.1,0.2,0.1c1.1,1,2.5,1.6,3.4,2.9C34.9,68.7,35.4,69.3,35.9,69.9z" fill="#d31416"/></g><g id="change6_1"><path d="M130.2,70.7c0.3-0.3,0.7-0.5,0.6-0.9c-0.1,0-0.3,0-0.4,0c0,0,0-0.1,0-0.1c0.9-1.2,2-2.2,3.2-3.2 c0.5-0.4,1-0.9,1.6-1.3c0.7-0.5,1.4-0.9,2.2-1.4c0.3-0.2,0.6-0.4,0.9-0.6c0.2-0.2,0.5-0.4,0.7-0.6c0.6-0.3,1.3-0.5,1.9-0.9 c0.6-0.4,1.1-0.9,1.6-1.3c0.2-0.2,0.5-0.4,0.8-0.5c0.7-0.4,1.5-0.7,2.2-1.1c0.6-0.4,1.2-0.8,1.8-1.2c0.4-0.3,0.8-0.5,1.2-0.7 c0.3-0.2,0.7-0.2,0.9-0.6c0,0,0.1-0.1,0.1-0.1c1.1-0.2,1.8-0.8,2.6-1.5c0.1-0.1,0.3-0.1,0.5-0.1c0.2-0.1,0.6-0.1,0.7-0.2 c0.5-0.7,1.2-0.9,1.9-1.1c0.4-0.1,0.7-0.3,1.1-0.5c0.4-0.3,0.8-0.5,1.3-0.5c0.3,0,0.7-0.2,0.9-0.5c0.7-0.8,1.8-0.9,2.8-1.2 c0.6-0.2,1.2,0.2,1.6,0.1c0.5,0.3,0.9,0.5,1.3,0.7c0.4,0.2,0.4,0.5,0.4,0.8c0,0.5,0.1,0.9,0.5,1.2c-0.1,0.3-0.1,0.6-0.2,0.8 c-0.1,0.4-0.2,0.7-0.5,1c-0.2,0.2-0.4,0.4-0.5,0.7c-0.3,0.4-0.5,0.8-1.1,0.7c0,0-0.1,0-0.1,0c-0.6,0.9-1.8,0.9-2.6,1.5 c-0.5,0.4-1.1,0.6-1.3,1.2c-0.4,0.1-0.8,0.3-1.2,0.4c-0.9,0.2-1.7,0.4-2.3,1.1c-0.1,0.1-0.4,0.2-0.6,0.2c-0.4,0.1-0.9,0-1.2,0.4 c-0.7-0.1-1.1,0.6-1.8,0.6c-0.5,0-0.9,0.3-1.2,0.7c-0.2,0.2-0.5,0.4-0.8,0.3c-0.6,0-1.2,0.2-1.7,0.6c-0.3,0.2-0.8,0.3-1.1,0.5 c-0.8,0.5-1.8,0.7-2.7,1c-0.4,0.2-0.8,0.4-1.3,0.6c-0.4,0.2-0.8,0.3-1.2,0.5c-0.2,0.1-0.4,0.1-0.6,0.2c-1.3,0.8-2.9,1.2-4.2,2 c-0.8,0.5-1.7,0.7-2.5,1.1c-1,0.5-2.2,0.5-3.2,1C131,70.7,130.6,70.7,130.2,70.7z" fill="#694a98"/></g></g></svg>