<?xml version="1.0" ?><!DOCTYPE svg  PUBLIC '-//W3C//DTD SVG 1.1//EN'  'http://www.w3.org/Graphics/SVG/1.1/DTD/svg11.dtd'><svg enable-background="new 0 0 2000 2000" id="Layer_1" version="1.1" viewBox="0 0 2000 2000" xml:space="preserve" xmlns="http://www.w3.org/2000/svg" xmlns:xlink="http://www.w3.org/1999/xlink"><g><path d="M971.7,923.2c-26.3-3.8-47.8-10.4-63.4-15.1c-10-3-17.1-5.2-21-5.2c-1.5,0-2.5,0.3-3,1c-0.4,0.5-0.6,1.3-0.4,2.3   c0.3,1.5,1.4,4.2,3.1,8.2c9.3,21.9,37.7,88.4,14.8,202.6c-27.5,137.7-65.6,272.8-76.9,273.3c-0.1,0-0.1,0-0.2,0   c-0.2,0-0.5-0.1-0.7-0.3c-0.3-4.4-7.8-96.7-36.7-119.6c2-2.9,16.7-25,27.3-54.9c10.5-29.6,18.9-73.1-0.4-112.6   c-29.5-60.4-113.2-94.3-248.9-100.7l-0.3,0l-0.1,0.3c-0.2,0.4-17.8,41-20.5,87.8c-1.6,27.5,2.3,51.8,11.4,72.1   c1.1,2.6,2.8,4.8,4.1,7.2c0.5,0.9,1,1.7,1.4,2.5c2.8,4.8,5.9,9.4,9.4,13.8c0.7,0.9,1.4,1.7,2.2,2.5c3.7,4.3,7.7,8.4,12.1,12.2   c0.8,0.7,1.6,1.3,2.5,2c4.9,4,10.2,7.6,15.8,10.9c0.6,0.4,1.2,0.7,1.9,1c3.2,1.8,6.1,3.8,9.6,5.3l133.5,25.9l0.7,0.1l-0.2-0.6   c-0.1-0.3-7-27.6-22-57.7c-13.6-27.2-36.6-62.3-69.9-76.4c6.9,0.6,28.3,4.2,52.9,27.6c37.1,35.3,64.3,97.7,80.8,185.2   c0.2,1.1,22.1,114.7,11.7,142c-19.8,52.1-91.5,227.8-182.7,298.5l-0.5,0.4l0.5,0.3c0.1,0.1,2.4,1.4,7.1,1.4c0,0,0,0,0,0   c11.7,0,37.3-8.2,78.1-63.3c50.3-68,107.3-184.6,169.4-346.6c0.9-2.9,90.2-294.2,84.7-344.4c0.4-2.1,10.5-56.9,47.3-77.5   c1-0.1,3.8-0.7,3.8-2.1C1009.8,931.6,1009.8,928.8,971.7,923.2z M884.9,904.6c0,0,0-0.1,0-0.2c0,0,0,0,0.1,0   C884.9,904.4,884.9,904.5,884.9,904.6z"/><path d="M1117.6,936.3l-0.1-0.1c-0.3-0.1-26.6-9.6-42.5-9.6c-4.4,0-7.6,0.7-9.7,2.1c-3.2,2.2-6.1,13.8-5.1,26.8   c1.1,13.6,7.2,38.5,35.9,52.3c44.8,21.4,75.8,150,76.1,151.3l0.6,2.5l0.2-2.5c0-0.4,3.6-40.5-1.4-87.7   C1166.8,1027.7,1153.7,968.8,1117.6,936.3z"/><path d="M1259.4,897.9c-0.2-0.2-3.6-3.8-11.9-3.8c-8.4,0-23.3,3.9-46.5,22.3c-23.8,19-37.9,23-45.5,23c-6.4,0-8.7-2.8-8.8-2.8   l-0.7,0.5c0.1,0.2,14.1,25,38.3,28.5c4,0.6,9.4,1.5,15.5,2.6c18.3,3.2,43.3,7.5,60.8,7.5c13.1,0,20-2.4,21-7.3l126.5,18.8l0.2-0.8   C1407.3,986.1,1297.7,956.9,1259.4,897.9z"/><path d="M1182.9,889.1c33-12,62.8-31.8,88.6-59.1c35.5-37.6,51.3-62,46.7-72.5c-0.5-1.1-1.6-1.8-2.6-2.6c-0.2-0.1-0.3-0.3-0.4-0.4   c-2.1-1.5-4.7-2.5-8.6-2.5c-4.8,0-9.2,1.2-9.2,1.2c-0.5,0.1-54.5,4.6-108.4,24.7c-31.7,11.8-57.1,26.6-75.6,44   c-23.1,21.8-35.4,47.7-36.4,76.9l0,0.3l0.3,0.1c0.1,0,12.5,2.8,32,2.8C1126.6,902,1153.3,899.8,1182.9,889.1z"/><path d="M590.4,866.1l1.4,0.6c30.6,12.6,102.2,42,165.8,42c12.2,0,23.3-1.4,33.7-3.6c0.3-0.1,0.5-0.1,0.8-0.2   c17.2-3.6,32.3-9.8,44.5-19.3l0.5-0.4l-0.6-0.3c-1-0.5-96.3-51.1-105.7-88.7c-1.7-6.6-9.1-10-22.2-10c-22.2,0-59.6,10.1-97.4,26.4   c-39.6,17-72,37.5-86.6,54.7c-7.3,8.5-10.4,16.3-9.2,23.2l0.2,1l0.6-0.8c0.2-0.3,20.7-29.2,52.4-29.2   C575.6,861.6,583,863.1,590.4,866.1z"/><path d="M1484.7,603.9c-0.2-0.7-0.3-1.7-0.5-2.8c-14.9-80.2-45.3-131.6-87.8-148.5c-1.8-2.7-35.2-53.2-71.3-53.2   c-1.1,0-2.2,0.1-3.3,0.1l-0.3,0l-3.2,21.8l0,0.1l0.1,0.1c0.4,0.9,36.3,85.8,37.4,117.2c0.1,2.8,0.3,6,0.5,9.4   c2,35.3,5.8,101.1-68.4,135.9c-0.5,0.1-56.9,11.3-112.7,38.6c-32.8,16.1-59,34.5-77.9,54.8c-23.7,25.4-35.9,53.8-36.3,84.4l0,2.1   l0.8-1.9c0.1-0.2,8.4-19.5,28.2-41.2c18.3-20,50.3-46,99.2-56.7c84.1-18.4,182.1-46,281.2-141.7c1.1-0.2,8.5-1.7,12.4-7.2   C1484.8,612.1,1485.5,608.3,1484.7,603.9z"/><path d="M933.8,667.8c-56.1-11.5-236.2-53.9-262.8-128.9c-0.1-0.2-0.2-0.5-0.3-0.7c-0.8-2.3-1.4-4.6-1.9-7   c-5.5-26.8-18.2-42.1-34.9-42.1c-9,0-18.4,4.6-26.5,13c-2.3,2.4-4.1,5.3-6.1,8.1c0,0,0,0,0,0c-10.1,14.5-15.7,34-15,54.6   c0.2,5.9,0.4,11.3,0.5,16.2c1,32.3,1.4,44.4,12.6,44.4c6.4,0,16-3.9,31.9-10.4c2.5-1,5.2-2.1,8-3.2c0.1,0,0.2,0,0.2,0   c0.5,0,1.3-0.1,2.4-0.3c2.1-0.4,5.3-0.9,9.9-0.9c26.3,0,76.5,19,166.8,109.4l0.1,0.1c0.2,0.1,25.2,10.6,63.5,10.6   c15.8,0,31.7-1.8,47.5-5.2c9.5-2.1,18.3-3.2,26.2-3.2c28,0,39.5,13.2,43.9,21.3c-5-4.6-17.6-10.2-49.5-10.2   c-21.2,0-48.3,2.5-80.4,7.4c0,0-2.8,0.2-7.7,0.2c-22.1,0-99.7-5-173.1-69.7l-0.2-0.1H689c-0.1,0-0.4,0-0.5,0.5   c-0.2,2.8,11.1,48.7,53.8,99.5c24.3,28.9,53.9,53.3,87.9,72.7c3.7,2.1,7.8,3.8,11.7,5.9c1.3,0.7,2.6,1.3,3.9,2   c9.5,4.8,19.3,9.2,29.4,13.3c1,0.4,2.1,0.8,3.1,1.2c11,4.3,22.3,8.1,33.9,11.5c0.9,0.3,1.8,0.5,2.7,0.7c12.5,3.6,25.5,6.6,38.8,9.2   c0.6,0.1,1.2,0.2,1.9,0.3c7.1,1.3,14,2.9,21.3,3.9c0.1,0,1.8,0.3,4.7,0.3c6.8,0,20.3-1.4,33.9-10.9c16.6-11.6,28.3-31.3,34.6-58.8   c7.2-31.5,1.9-62.3-15.3-89.1C1013.6,700.5,976.8,676.6,933.8,667.8z"/><path d="M806,535.3c-12.6,25.6-14.3,51.5-14.3,51.8l0,0.4l0.4,0c0.4,0,41,4.5,92.5,21.4c47.4,15.7,114.1,45.5,162.1,98.8l0.6,0.6   l0.2-0.8c0-0.1,2.7-14.1,14.3-29.7c10.7-14.4,31.4-33.3,69.2-41.1c72.9-15,77.5-61.3,75.9-111.4l0-1l-0.7,0.8   c-0.2,0.2-22.8,24.6-78.8,24.6c-43.3,0-94.7-14.2-152.7-42.3c-32.7-15.8-61.9-23.8-86.8-23.8C841.3,483.5,817.7,511.7,806,535.3z"/><path d="M1195.1,351.5c26.4,37.8,56.3,96.2,48.6,159.7c-7.6,63.5-26.9,96.8-41.8,113.6c-16.1,18.2-30.5,21.4-30.7,21.4l-0.1,0.1   c-3.9,2.6-95.8,64.7-92.2,83.9l0.1,0.4l0.4-0.1c1.4-0.3,141.1-29.7,198.3-92c12.4-13.5,23.3-23.4,32-31.4   c32.5-29.8,40.3-36.9,14.7-118.9l-32.9-85.8c0-2.5,0.2-60.3-34.9-96.1c-1.7-1.7-3.7-3-5.5-4.5c-1.4-1.3-2.9-2.5-4.5-3.7   c-3.4-2.6-7-5-10.7-7.1c-1.7-1-3.5-1.8-5.3-2.7c-3.9-1.9-8-3.6-12.3-5c-1-0.3-2.1-0.5-3.1-0.8c-10.5-3-21.6-5-34-5   c-14,0-29.4,1.9-45.7,5.8l-0.8,0.2l0.6,0.5C1135.7,284.3,1166.5,310.6,1195.1,351.5z"/><path d="M749.7,566.5l1.2,0.1l-0.9-0.8c-18.9-17.3-11.8-112-11.7-112.9c0,0,10.6-56,17.7-93.9c7-37.2,143.6-116.4,144.9-117.2   l0.9-0.5l-1-0.2c-19.7-5-39.1-7.5-57.9-7.5c-57.1,0-99.5,23.6-125,43.4c-27.6,21.5-41.9,43.2-42,43.5l-15.6,107.1v0.1   c14.1,68.6,37.6,102.7,54.8,119.2C733.9,564.8,749.6,566.5,749.7,566.5z"/><path d="M802.4,352.2c-33.7,53.3-43.2,107.4-43.3,107.9l0,0.1l34.5,64l0.4,0.8l0.3-0.8c0.2-0.5,19.5-49.8,54.7-98.4   c32.4-44.9,85.4-98.3,153.5-98.3c15.3,0,31,2.7,46.6,8c82.8,28.3,111.2,72.9,120.5,105.3c10.1,35.1,0.5,63.9,0.4,64.2l-0.2,0.6   l0.6-0.1c27-2.3,40.3-36.6,35.5-91.8c-4.5-52.1-125-157.8-126.2-158.8l-0.1-0.1l-70.8-10.3c-4.7-0.2-9.4-0.3-14-0.3   c-45.4,0-86,11.4-120.7,33.7C846.3,295.9,822.2,320.9,802.4,352.2z"/><path d="M991.3,349.2c-8.3,0-17.1,0.3-26.2,0.9l-0.2,0l-0.1,0.1c-0.8,1-4.2,4.5-9.4,9.8c-43.7,45-93.2,97.7-87.5,105.4l0.1,0.2h0.2   c1.3,0.1,127.7,4.9,144.6,11.4l0.8,0.3l-0.3-0.8c-0.2-0.5-19.7-55.7-2.1-83.3c5.8-9.1,15.2-14.3,27.8-15.3c3.3-0.3,6.5-0.4,9.6-0.4   c50.5,0,60.2,37.1,60.3,37.5l0.6,2.5l0.2-2.6c0-0.2,1.1-17.7-14.4-34.5C1076.1,359.7,1041.1,349.2,991.3,349.2z"/><path d="M1090.7,482.6l-0.1-0.5c-0.1-0.4-5.5-40.9-32.1-40.9c-6.1,0-12.9,2.1-20.2,6.3c-8.7,5-12.7,9.8-11.7,14.3   c3.3,15,61.2,20.6,63.6,20.8L1090.7,482.6z"/><path d="M1083.9,518.3c1.8,0.1,3.6,0.1,5.4,0.1c15.3,0,31.1-3.1,43.9-8.6c14.6-6.2,23-14.6,23.2-23c0.5-25.8-47.2-54.4-49.3-55.6   l-1.6-0.9l1,1.5c13.9,20.9,17.4,37.4,10.4,49.1c-15.3,25.5-75.9,19.8-76.5,19.8l0,0.4l-3.1-0.4c-0.2-0.2-0.4-0.3-0.6-0.4l-0.3,0.3   h0l0,0l-0.3,0.3C1050.7,514.1,1070.1,517.6,1083.9,518.3z"/></g></svg>